<?xml version="1.0" encoding="utf-8"?>
<!-- Generator: Adobe Illustrator 24.0.1, SVG Export Plug-In . SVG Version: 6.00 Build 0)  -->
<svg version="1.1" id="Calque_1" xmlns="http://www.w3.org/2000/svg" xmlns:xlink="http://www.w3.org/1999/xlink" x="0px" y="0px"
	 viewBox="0 0 841.89 595.28" style="enable-background:new 0 0 841.89 595.28;" xml:space="preserve">
<style type="text/css">
	.st0{fill:#31B7C0;}
	.st1{fill:#FFFFFF;}
	.st2{fill:#008289;}
</style>
<g>
	<g>
		<g>
			<path class="st0" d="M771.02,90.08c-0.01-18.08-0.22-36.17,0.07-54.25c0.2-12.28-5.19-18-17.65-17.93
				c-36.21,0.19-72.43,0.33-108.64-0.11c-15.03-0.18-20.1,7.28-20.01,21.03c0.21,31,0.13,62,0.04,92.99
				c-0.06,21.23-9.56,31.31-30.97,31.77c-22.24,0.48-44.5,0.58-66.73-0.05c-14.92-0.42-20.49,6.5-20.35,20.54
				c0.26,25.31-0.09,50.63,0.13,75.94c0.14,16.19,5.36,21.51,21.32,21.66c25.35,0.24,50.7,0.27,76.05-0.01
				c16.82-0.18,20.67-4.36,20.76-21.44c0.12-21.18-0.2-42.37,0.09-63.54c0.32-23.53,9.78-32.73,33.07-32.77
				c30.01-0.04,60.01,0.1,90.02-0.05c18.99-0.09,22.65-3.82,22.77-22.65C771.11,124.18,771.02,107.13,771.02,90.08z"/>
			<path class="st1" d="M748.76,253.83c0-11.87-0.31-23.75,0.09-35.61c0.36-10.69-4.87-14.96-14.94-14.93
				c-23.78,0.05-47.55,0.03-71.33,0.03c-9.38,0-14.01,3.79-13.72,14.04c0.56,20.12,0.35,40.26,0.11,60.39
				c-0.23,19.43-6.82,25.89-26.21,25.97c-13.41,0.05-26.83-0.27-40.24-0.52c-10-0.19-15.4,3.78-15.18,14.58
				c0.35,17.54,0.18,35.1,0.06,52.65c-0.07,9.43,3.6,14.31,13.81,14.07c17.56-0.41,35.16-0.46,52.72,0.02
				c11.01,0.3,14.8-5.47,14.9-15.11c0.15-14.97,0.22-29.94,0-44.91c-0.21-14.14,6.43-20.9,20.63-20.78
				c20.67,0.17,41.36-0.32,62.02,0.18c12.67,0.3,17.99-4.98,17.4-17.54C748.37,275.53,748.77,264.67,748.76,253.83z"/>
			<path class="st1" d="M559.74,105.7c-0.03-37.07-0.03-37.27-37.82-37.04c-41.41,0.24-36.42-5.25-36.52,35.8
				c-0.1,40.43,3.63,38.9-38.33,38.63c-21.6-0.14-21.6-0.01-21.63,20.88c-0.06,38.75-0.06,38.75,38.92,38.73
				c20.84-0.01,20.84-0.01,20.85-20.82c0.01-38.91,0.01-38.91,38.74-38.97C559.76,142.84,559.76,142.84,559.74,105.7z"/>
			<path class="st0" d="M435.13,271.53c0.3,28.58-3.64,25.58,25.49,25.71c24.2,0.11,24.89,0.04,24.21,24.38
				c-0.37,13.1,4.22,17.95,16.93,16.34c4.58-0.58,9.32-0.43,13.93-0.03c9.06,0.79,11.99-3.87,11.69-12.02
				c-0.15-4.12-0.43-8.3,0.06-12.37c1.52-12.66-3.32-17.21-16.48-16.8c-25.29,0.79-25.6-0.21-25.61-25.97
				c0-2.58-0.34-5.21,0.06-7.73c2.13-13.52-3.25-19.41-17.03-17.33c-2.53,0.38-5.16,0.05-7.74,0.06
				C430.5,245.87,435.57,243.98,435.13,271.53z"/>
			<path class="st0" d="M747.04,367.49c0.09-8-3.52-10.89-11.33-10.85c-7.51,0.04-12.45,0.02-18.65-0.04
				c-10.17-0.11-14,3.76-13.77,13.89c0.48,20.59-0.74,41.25,0.44,61.78c0.81,14.22-3.9,17.95-17.95,17.89
				c-115.33-0.54-230.66-0.31-346-0.31c-61.62,0-123.25-0.4-184.87,0.31c-13.64,0.16-17.1-4.06-17.03-17.24
				c0.49-99.93,0.54-199.86-0.03-299.79c-0.08-13.87,4.54-16.75,17.49-16.67c85.36,0.54,170.74-0.16,256.1,0.66
				c16.41,0.16,19.84-3.43,20.29-20.65c0.18-6.72-0.57-13.5-0.79-20.25c0,0,0,0,0,0c0,0,0,0,0,0c-1.19-3.99-9.03-3.41-13.64-3.42
				c-102.17-0.16-204.34-0.07-306.52-0.21c-9.19-0.01-16.14-0.25-16.09,12.75c0.54,135.85,0.58,271.69,0.76,407.54
				c216.96,0,433.92,0,650.88,0.01c-0.15-1.19-0.29-2.39-0.43-3.58C746.26,448.71,746.56,408.1,747.04,367.49z"/>
			<path class="st2" d="M811.46,552.11c-22.06-19.34-43.47-39.42-65.14-59.21c-6.08-5.61-13.71-4.58-20.95-4.58
				c-202.99-0.09-405.98-0.09-608.96,0c-7.24,0-14.87-1.05-20.95,4.58c-20.84,19.02-41.7,38.03-62.51,57.08
				c-4.07,3.73-8.55,6.85-8.74,13.61c-0.25,8.85,0,13.92,12.02,13.9c256.42-0.42,512.84-0.3,769.26-0.47
				c3.85,0,10.64,0.37,11.35-3.3C818.3,566.25,818.84,558.59,811.46,552.11z M329.96,556.76c5.57-17.51,15-23.92,34.51-24.09
				c38.91-0.34,74.23-0.34,113.59-0.03c19.57-0.91,28.11,7.93,34.15,24.12C450.87,556.76,390.62,556.76,329.96,556.76z"/>
		</g>
	</g>
	<g>
		<polygon class="st1" points="166.64,285.43 238.41,321.94 238.41,301.03 191.66,276.77 238.41,252.51 238.41,231.68 
			166.64,268.12 		"/>
		<polygon class="st1" points="245.09,346.74 262,346.74 308.53,221.85 291.54,221.85 		"/>
		<polygon class="st1" points="315.24,231.65 315.24,252.51 362.06,276.77 315.24,301.03 315.24,321.94 387.01,285.4 387.01,268.12 
					"/>
	</g>
</g>
</svg>
